<?xml version="1.0" standalone="no"?><!DOCTYPE svg PUBLIC "-//W3C//DTD SVG 1.1//EN" "http://www.w3.org/Graphics/SVG/1.1/DTD/svg11.dtd"><svg t="1561013739141" class="icon" style="" viewBox="0 0 1024 1024" version="1.1" xmlns="http://www.w3.org/2000/svg" p-id="17545" xmlns:xlink="http://www.w3.org/1999/xlink" width="64" height="64"><defs><style type="text/css">@font-face { font-family: uc-nexus-iconfont; src: url("chrome-extension://pogijhnlcfmcppgimcaccdkmbedjkmhi/res/font_9qmmi8b8jsxxbt9.woff") format("woff"), url("chrome-extension://pogijhnlcfmcppgimcaccdkmbedjkmhi/res/font_9qmmi8b8jsxxbt9.ttf") format("truetype"); }
</style></defs><path d="M687.012733 1024c-29.085211 0-55.161606-10.029383-74.217434-30.088149L104.305583 487.428012c-21.061704-21.061704-33.096964-50.146915-32.094026-79.232126l7.020568-242.711067a96.282076 96.282076 0 0 1 97.285015-94.2762h233.684623c28.082272 0 55.161606 12.03526 76.22331 32.094025l508.489716 508.489716c22.064643 22.064643 33.096964 54.158668 29.085211 87.255632s-18.052889 61.179236-42.123408 84.246817L784.297747 981.876592c-23.067581 23.067581-53.15573 38.111655-84.246817 42.123408zM176.51714 150.440744c-10.029383 0-17.049951 7.020568-17.049951 17.049951l-7.020568 242.711068c0 7.020568 3.008815 15.044074 9.026445 20.058766l507.486777 507.486778c11.032321 11.032321 37.108717 8.023506 58.170421-13.038198l197.578845-197.578845c21.061704-21.061704 23.067581-48.141038 13.038198-58.170421L429.257591 160.470127c-5.014691-5.014691-13.038198-9.026445-19.055828-9.026444H176.51714z m-57.167483 16.047013z" fill="" p-id="17546"></path><path d="M316.928501 442.295788a130.381978 130.381978 0 1 1 130.381979-130.381978 130.381978 130.381978 0 0 1-130.381979 130.381978z m0-180.528893a50.146915 50.146915 0 1 0 50.146915 50.146915 50.146915 50.146915 0 0 0-50.146915-50.146915z" fill="" p-id="17547"></path><path d="M258.75808 362.060725c-15.044074 0-32.094025-3.008815-49.143976-8.023507-42.123408-13.038198-86.252693-40.117532-124.364349-78.229187S21.061704 194.570029 8.023506 152.446621c-7.020568-23.067581-9.026445-44.129285-7.020568-64.188051s12.03526-44.129285 27.079334-59.173359S71.208619 1.002938 100.29383 1.002938a40.120541 40.120541 0 1 1 1.002938 80.235064c-5.014691 0-13.038198 1.002938-17.049951 5.014691s-7.020568 23.067581-1.002938 43.126347 30.088149 62.182174 58.170421 90.264447 61.179236 49.143976 90.264446 58.170421 37.108717 6.01763 43.126347-1.002938a40.423428 40.423428 0 0 1 57.167483 57.167482c-15.044074 15.044074-36.105779 25.073457-59.17336 28.082273z" fill="" p-id="17548"></path></svg>