<?xml version="1.0" standalone="no"?><!DOCTYPE svg PUBLIC "-//W3C//DTD SVG 1.1//EN" "http://www.w3.org/Graphics/SVG/1.1/DTD/svg11.dtd"><svg t="1561013707988" class="icon" style="" viewBox="0 0 1024 1024" version="1.1" xmlns="http://www.w3.org/2000/svg" p-id="14077" xmlns:xlink="http://www.w3.org/1999/xlink" width="64" height="64"><defs><style type="text/css">@font-face { font-family: uc-nexus-iconfont; src: url("chrome-extension://pogijhnlcfmcppgimcaccdkmbedjkmhi/res/font_9qmmi8b8jsxxbt9.woff") format("woff"), url("chrome-extension://pogijhnlcfmcppgimcaccdkmbedjkmhi/res/font_9qmmi8b8jsxxbt9.ttf") format("truetype"); }
</style></defs><path d="M592.659602 463.749679h415.180425a16.103071 16.103071 0 0 0 16.01772-18.094618A516.350959 516.350959 0 0 0 578.491175 0.146236 16.074621 16.074621 0 0 0 560.48191 16.163956v415.180425A32.263044 32.263044 0 0 0 592.659602 463.749679zM463.749679 431.344381V16.163956a16.074621 16.074621 0 0 0-18.236871-16.01772A516.350959 516.350959 0 0 0 0.146236 445.512808 16.074621 16.074621 0 0 0 16.163956 463.749679h415.180425A32.263044 32.263044 0 0 0 463.749679 431.344381zM431.344381 560.48191H16.163956a16.074621 16.074621 0 0 0-16.01772 18.094617 516.350959 516.350959 0 0 0 445.366572 445.28122 16.103071 16.103071 0 0 0 18.094617-16.01772V592.659602A32.263044 32.263044 0 0 0 431.344381 560.48191zM560.48191 592.659602v415.180425a16.103071 16.103071 0 0 0 18.094617 16.01772 516.350959 516.350959 0 0 0 445.28122-445.366572 16.103071 16.103071 0 0 0-16.01772-18.094617H592.659602A32.234593 32.234593 0 0 0 560.48191 592.659602z" p-id="14078"></path></svg>